<svg width="96" height="96" viewBox="0 0 96 96" fill="none" xmlns="http://www.w3.org/2000/svg">
<path d="M50.3039 66.4416H73.9199C78.2207 66.4416 81.5999 63.0192 81.5999 58.9248V26.7168C81.5999 22.6224 78.2207 19.2 73.9199 19.2H22.0799C17.7791 19.2 14.3999 22.6224 14.3999 26.7168V58.9248C14.3999 63.0192 17.7791 66.4416 22.0799 66.4416H29.7599V81.6H29.7743L29.7839 81.5952L50.3087 66.4416H50.3039ZM32.6399 85.4544C31.6181 86.2077 30.3414 86.5296 29.0846 86.3509C27.8278 86.1723 26.6914 85.5074 25.9199 84.4992C25.3015 83.6845 24.9661 82.6901 24.9647 81.6672V71.2416H22.0847C15.1919 71.2416 9.60474 65.7264 9.60474 58.9248V26.7168C9.59994 19.9152 15.1871 14.4 22.0799 14.4H73.9199C80.8127 14.4 86.3999 19.9152 86.3999 26.7168V58.9248C86.3999 65.7312 80.8127 71.2416 73.9199 71.2416H51.8879L32.6351 85.4544H32.6399Z" fill="white"/>
</svg>
