<svg xmlns="http://www.w3.org/2000/svg" viewBox="0 0 24 24" id="facebook"><path d="M4.5 24.002a.5.5 0 0 1-.5-.5v-3.44c-2.545-2.186-4-5.292-4-8.56C0 5.161 5.383.002 12 .002s12 5.159 12 11.5-5.383 11.5-12 11.5c-1.537 0-3.032-.275-4.448-.817l-2.787 1.741a.496.496 0 0 1-.265.076zm7.5-23c-6.065 0-11 4.71-11 10.5 0 3.046 1.392 5.94 3.818 7.941a.503.503 0 0 1 .182.386V22.6l2.235-1.397a.503.503 0 0 1 .454-.039c1.367.556 2.817.838 4.311.838 6.065 0 11-4.71 11-10.5s-4.935-10.5-11-10.5z"></path><path d="M14 2.042c6.76 0 12 4.952 12 11.64S20.76 25.322 14 25.322a13.091 13.091 0 0 1-3.474-.461.956 .956 0 0 0-.641.047L7.5 25.959a.961.961 0 0 1-1.348-.849l-.065-2.134a.957.957 0 0 0-.322-.684A11.389 11.389 0 0 1 2 13.682C2 6.994 7.24 2.042 14 2.042ZM6.794 17.086a.57.57 0 0 0 .827.758l3.786-2.874a.722.722 0 0 1 .868 0l2.8 2.1a1.8 1.8 0 0 0 2.6-.481l3.525-5.592a.57.57 0 0 0-.827-.758l-3.786 2.874a.722.722 0 0 1-.868 0l-2.8-2.1a1.8 1.8 0 0 0-2.6.481Z"></path></svg>