<svg width="96" height="96" viewBox="0 0 96 96" fill="none" id="likes" xmlns="http://www.w3.org/2000/svg">
<path d="M76.8 44.544C76.8 40.512 73.536 38.4 69.12 38.4H56.256C57.216 34.944 57.6 31.68 57.6 28.8C57.6 17.664 54.528 15.36 51.84 15.36C50.112 15.36 48.768 15.552 47.04 16.512C46.464 16.896 46.272 17.28 46.08 17.856L44.16 28.224C42.048 33.6 36.864 38.4 32.64 41.664V69.12C34.176 69.12 35.712 69.888 37.632 70.848C39.744 71.808 41.856 72.96 44.16 72.96H62.4C66.24 72.96 69.12 69.888 69.12 67.2C69.12 66.624 69.12 66.24 68.928 65.856C71.232 64.896 72.96 62.976 72.96 60.48C72.96 59.328 72.768 58.368 72.384 57.408C73.92 56.448 75.264 54.72 75.264 52.8C75.264 51.648 74.688 50.496 74.112 49.536C75.648 48.384 76.8 46.464 76.8 44.544ZM72.768 44.544C72.768 47.04 70.272 47.232 69.888 48.384C69.504 49.728 71.424 50.112 71.424 52.416C71.424 54.72 68.544 54.72 68.16 56.064C67.776 57.6 69.12 57.984 69.12 60.288V60.672C68.736 62.592 65.856 62.784 65.28 63.552C64.704 64.512 65.28 64.896 65.28 67.008C65.28 68.16 63.936 68.928 62.4 68.928H44.16C42.624 68.928 41.088 68.16 39.168 67.2C37.632 66.432 36.096 65.664 34.56 65.28V45.12C39.36 41.472 45.504 36.096 47.808 29.376V28.992L49.536 19.392C50.304 19.2 50.88 19.2 51.84 19.2C52.224 19.2 53.76 21.504 53.76 28.8C53.76 31.68 53.184 34.752 52.224 38.4H51.84C50.688 38.4 49.92 39.168 49.92 40.32C49.92 41.472 50.688 42.24 51.84 42.24H69.12C71.04 42.24 72.768 43.2 72.768 44.544Z" fill="white"/>
<path d="M30.72 72.96H19.2C17.088 72.96 15.36 71.232 15.36 69.12V42.24C15.36 40.128 17.088 38.4 19.2 38.4H30.72C32.832 38.4 34.56 40.128 34.56 42.24V69.12C34.56 71.232 32.832 72.96 30.72 72.96ZM19.2 42.24V69.12H30.72V42.24H19.2Z" fill="white"/>
</svg>
