<svg width="96" height="96" viewBox="0 0 96 96" fill="none" id="share" xmlns="http://www.w3.org/2000/svg">
<path d="M89.1225 39.8812L59.1225 9.8812C58.7032 9.4614 58.1688 9.17537 57.5869 9.0593C57.0049 8.94323 56.4017 9.00233 55.8534 9.22912C55.3051 9.45591 54.8363 9.84021 54.5064 10.3334C54.1765 10.8266 54.0003 11.4066 54 12V27.1312C44.2725 27.9637 33.5288 32.7262 24.69 40.2225C14.0475 49.2525 7.42127 60.8887 6.03002 72.9862C5.9213 73.9267 6.112 74.8776 6.57498 75.7035C7.03796 76.5293 7.74964 77.1881 8.60873 77.5861C9.46782 77.9841 10.4305 78.1009 11.3599 77.9201C12.2893 77.7392 13.1379 77.2698 13.785 76.5787C17.91 72.1875 32.5875 58.3012 54 57.0787V72C54.0003 72.5933 54.1765 73.1733 54.5064 73.6665C54.8363 74.1597 55.3051 74.544 55.8534 74.7708C56.4017 74.9976 57.0049 75.0567 57.5869 74.9406C58.1688 74.8245 58.7032 74.5385 59.1225 74.1187L89.1225 44.1187C89.6835 43.5563 89.9986 42.7943 89.9986 42C89.9986 41.2056 89.6835 40.4436 89.1225 39.8812ZM60 64.7587V54C60 53.2043 59.6839 52.4412 59.1213 51.8786C58.5587 51.316 57.7957 51 57 51C46.47 51 36.2138 53.7487 26.5163 59.175C21.5773 61.9508 16.9756 65.2879 12.8025 69.12C14.9775 60.18 20.46 51.6787 28.5713 44.7975C37.2788 37.4137 47.9063 33 57 33C57.7957 33 58.5587 32.6839 59.1213 32.1213C59.6839 31.5587 60 30.7956 60 30V19.245L82.7588 42L60 64.7587Z" fill="white"/>
</svg>
